<svg width="1046" height="482" viewBox="0 0 1046 482" fill="none" xmlns="http://www.w3.org/2000/svg">
<path fill-rule="evenodd" clip-rule="evenodd" d="M180.132 101.437H178.545V101.34L176.644 102.599C160.683 78.4868 112.158 30.4682 46.4286 30.8777L46.4128 28.3347C29.581 63.5017 33.2388 156.323 180.132 254.547V254.686L180.236 254.617L180.341 254.686V254.547C327.075 156.429 330.883 63.7021 314.114 28.4488L314.099 30.8777C248.37 30.4682 199.844 78.4868 183.884 102.599L182.128 101.437H180.341V110.912V111.474H180.602V111.473C232.756 65.751 323.742 0.946827 270.461 107.509C259.279 127.515 225.986 175.211 181.718 207.14V207.147H181.708C181.34 207.412 180.972 207.676 180.602 207.94V207.147H180.341V254.547L180.236 254.617L180.132 254.547V207.147H179.87V207.94C135.046 176.013 101.288 127.683 90.0111 107.509C36.73 0.946823 127.717 65.751 179.87 111.473V111.474H180.132V110.912V101.437ZM180.132 39.5536L180.132 91.9645C160.588 66.0007 113.72 23.4869 50.8479 21.9197C86.7026 -22.7694 151.331 14.2598 180.236 39.4626L180.132 39.5536ZM180.236 39.4626C209.142 14.2596 273.771 -22.7701 309.626 21.921C246.721 23.5127 199.846 66.0882 180.341 92.0378L180.341 39.5536L180.236 39.4626Z" fill="#009355"/>
<path d="M180.132 101.437H180.632V100.937H180.132V101.437ZM178.545 101.437H178.045V101.937H178.545V101.437ZM178.545 101.34H179.045V100.409L178.27 100.923L178.545 101.34ZM176.644 102.599L176.227 102.875L176.503 103.292L176.92 103.016L176.644 102.599ZM46.4286 30.8777L45.9286 30.8808L45.9317 31.3808L46.4317 31.3777L46.4286 30.8777ZM46.4128 28.3347L46.9127 28.3316L45.9618 28.1188L46.4128 28.3347ZM180.132 254.686H179.632V255.622L180.41 255.102L180.132 254.686ZM180.341 254.686L180.063 255.102L180.841 255.622V254.686H180.341ZM314.114 28.4488L314.566 28.234L313.614 28.4457L314.114 28.4488ZM314.099 30.8777L314.096 31.3777L314.596 31.3808L314.599 30.8808L314.099 30.8777ZM183.884 102.599L183.608 103.016L184.025 103.292L184.301 102.875L183.884 102.599ZM182.128 101.437L182.404 101.02L182.279 100.937H182.128V101.437ZM180.341 101.437V100.937H179.841V101.437H180.341ZM180.341 111.474H179.841V111.974H180.341V111.474ZM180.602 111.474V111.974H181.102V111.474H180.602ZM180.602 111.473L180.273 111.097L180.102 111.247V111.473H180.602ZM270.461 107.509L270.898 107.753L270.903 107.743L270.909 107.733L270.461 107.509ZM181.718 207.14L181.426 206.734L181.218 206.884V207.14H181.718ZM181.718 207.147V207.647H182.218V207.147H181.718ZM181.708 207.147V206.647H181.547L181.416 206.741L181.708 207.147ZM180.602 207.94H180.102V208.91L180.892 208.347L180.602 207.94ZM180.602 207.147H181.102V206.647H180.602V207.147ZM180.341 207.147V206.647H179.841V207.147H180.341ZM180.132 207.147H180.632V206.647H180.132V207.147ZM179.87 207.147V206.647H179.37V207.147H179.87ZM179.87 207.94L179.58 208.347L180.37 208.91V207.94H179.87ZM90.0111 107.509L89.5639 107.733L89.569 107.743L89.5746 107.753L90.0111 107.509ZM179.87 111.473H180.37V111.247L180.2 111.097L179.87 111.473ZM179.87 111.474H179.37V111.974H179.87V111.474ZM180.132 111.474V111.974H180.632V111.474H180.132ZM180.132 91.9645L179.732 92.2652L180.632 93.4601L180.632 91.9645L180.132 91.9645ZM180.132 39.5536L179.803 39.1769L179.632 39.3264L179.632 39.5536L180.132 39.5536ZM50.8479 21.9197L50.4579 21.6068L49.826 22.3944L50.8354 22.4195L50.8479 21.9197ZM309.626 21.921L309.638 22.4209L310.647 22.3954L310.016 21.6082L309.626 21.921ZM180.341 92.0378L179.841 92.0378L179.841 93.5351L180.74 92.3382L180.341 92.0378ZM180.341 39.5536L180.841 39.5536L180.841 39.3264L180.669 39.1769L180.341 39.5536ZM180.132 100.937H178.545V101.937H180.132V100.937ZM179.045 101.437V101.34H178.045V101.437H179.045ZM178.27 100.923L176.368 102.182L176.92 103.016L178.821 101.757L178.27 100.923ZM177.061 102.323C169.044 90.2124 152.876 72.1321 130.478 57.1273C108.076 42.12 79.4155 30.1722 46.4255 30.3777L46.4317 31.3777C79.1708 31.1737 107.638 43.0304 129.921 57.9581C152.208 72.8882 168.283 90.8732 176.227 102.875L177.061 102.323ZM46.9286 30.8746L46.9127 28.3316L45.9128 28.3378L45.9286 30.8808L46.9286 30.8746ZM45.9618 28.1188C28.9741 63.6116 32.864 156.674 179.854 254.962L180.41 254.131C33.6136 155.972 30.1879 63.3919 46.8638 28.5505L45.9618 28.1188ZM179.632 254.547V254.686H180.632V254.547H179.632ZM180.41 255.102L180.514 255.032L179.958 254.201L179.854 254.271L180.41 255.102ZM179.958 255.032L180.063 255.102L180.618 254.271L180.514 254.201L179.958 255.032ZM180.841 254.686V254.547H179.841V254.686H180.841ZM180.618 254.962C327.45 156.78 331.49 63.8126 314.566 28.234L313.663 28.6636C330.277 63.5916 326.7 156.079 180.063 254.131L180.618 254.962ZM313.614 28.4457L313.599 30.8746L314.599 30.8808L314.614 28.4519L313.614 28.4457ZM314.102 30.3777C281.112 30.1722 252.452 42.1201 230.05 57.1273C207.651 72.1321 191.483 90.2124 183.467 102.323L184.301 102.875C192.245 90.8732 208.32 72.8882 230.606 57.9581C252.89 43.0304 281.357 31.1737 314.096 31.3777L314.102 30.3777ZM184.16 102.182L182.404 101.02L181.852 101.854L183.608 103.016L184.16 102.182ZM182.128 100.937H180.341V101.937H182.128V100.937ZM179.841 101.437V110.912H180.841V101.437H179.841ZM179.841 110.912V111.474H180.841V110.912H179.841ZM180.341 111.974H180.602V110.974H180.341V111.974ZM181.102 111.474V111.473H180.102V111.474H181.102ZM180.932 111.849C193.962 100.426 209.414 87.8137 224.43 76.985C239.455 66.1495 254.009 57.1254 265.248 52.8518C270.876 50.7114 275.601 49.7916 279.114 50.3719C280.858 50.66 282.288 51.3155 283.39 52.3624C284.492 53.4097 285.299 54.88 285.745 56.853C286.642 60.8215 286.061 66.7504 283.558 75.0649C281.06 83.364 276.668 93.9783 270.014 107.285L270.909 107.733C277.575 94.399 281.995 83.7281 284.516 75.3531C287.032 66.9935 287.676 60.8596 286.721 56.6326C286.24 54.5079 285.352 52.8472 284.079 51.6374C282.805 50.4273 281.179 49.6995 279.277 49.3852C275.496 48.7607 270.566 49.7595 264.892 51.9171C253.525 56.2396 238.883 65.3293 223.845 76.1739C208.798 87.0254 193.32 99.659 180.273 111.097L180.932 111.849ZM270.025 107.265C258.865 127.231 225.616 174.862 181.426 206.734L182.011 207.545C226.356 175.561 259.692 127.8 270.898 107.753L270.025 107.265ZM181.218 207.14V207.147H182.218V207.14H181.218ZM181.718 206.647H181.708V207.647H181.718V206.647ZM181.416 206.741C181.049 207.006 180.681 207.27 180.312 207.532L180.892 208.347C181.263 208.083 181.632 207.818 182.001 207.552L181.416 206.741ZM181.102 207.94V207.147H180.102V207.94H181.102ZM180.602 206.647H180.341V207.647H180.602V206.647ZM179.841 207.147V254.547H180.841V207.147H179.841ZM180.063 254.131L179.958 254.201L180.514 255.032L180.618 254.963L180.063 254.131ZM180.514 254.201L180.41 254.131L179.854 254.963L179.958 255.032L180.514 254.201ZM180.632 254.547V207.147H179.632V254.547H180.632ZM180.132 206.647H179.87V207.647H180.132V206.647ZM179.37 207.147V207.94H180.37V207.147H179.37ZM180.16 207.532C135.416 175.662 101.701 127.399 90.4475 107.265L89.5746 107.753C100.874 127.968 134.677 176.364 179.58 208.347L180.16 207.532ZM90.4583 107.285C83.8048 93.9783 79.4124 83.364 76.9144 75.0649C74.4118 66.7504 73.8303 60.8215 74.7272 56.853C75.1731 54.88 75.9803 53.4097 77.0826 52.3624C78.1845 51.3155 79.6143 50.66 81.3586 50.3719C84.8709 49.7916 89.596 50.7114 95.2249 52.8518C106.463 57.1254 121.017 66.1495 136.042 76.985C151.058 87.8137 166.511 100.426 179.54 111.849L180.2 111.097C167.152 99.659 151.674 87.0254 136.627 76.1739C121.589 65.3293 106.948 56.2396 95.5803 51.9171C89.9064 49.7595 84.976 48.7607 81.1956 49.3852C79.2935 49.6995 77.6675 50.4273 76.3938 51.6374C75.1204 52.8472 74.232 54.5079 73.7518 56.6326C72.7965 60.8596 73.4406 66.9935 75.9568 75.3531C78.4776 83.7281 82.8971 94.3991 89.5639 107.733L90.4583 107.285ZM179.37 111.473V111.474H180.37V111.473H179.37ZM179.87 111.974H180.132V110.974H179.87V111.974ZM180.632 111.474V110.912H179.632V111.474H180.632ZM180.632 110.912V101.437H179.632V110.912H180.632ZM180.632 91.9645L180.632 39.5536L179.632 39.5536L179.632 91.9645L180.632 91.9645ZM50.8354 22.4195C113.493 23.9814 160.235 66.3629 179.732 92.2652L180.531 91.6638C160.941 65.6385 113.947 22.9924 50.8604 21.4198L50.8354 22.4195ZM180.565 39.0857C166.078 26.4543 142.63 10.8485 118.284 4.00039C93.9244 -2.85123 68.5585 -0.953689 50.4579 21.6068L51.2379 22.2326C68.992 0.104018 93.8678 -1.82836 118.013 4.96303C142.17 11.758 165.49 27.2681 179.908 39.8394L180.565 39.0857ZM180.461 39.9303L180.565 39.8393L179.907 39.0859L179.803 39.1769L180.461 39.9303ZM310.016 21.6082C291.915 -0.953371 266.549 -2.85133 242.19 4.00018C217.843 10.8481 194.395 26.4542 179.908 39.0857L180.565 39.8394C194.983 27.268 218.302 11.7577 242.46 4.96283C266.606 -1.82845 291.482 0.104328 309.236 22.2339L310.016 21.6082ZM180.74 92.3382C200.199 66.4502 246.949 24.0071 309.638 22.4209L309.613 21.4212C246.494 23.0183 199.492 65.7262 179.941 91.7373L180.74 92.3382ZM179.841 39.5536L179.841 92.0378L180.841 92.0378L180.841 39.5536L179.841 39.5536ZM179.907 39.8393L180.012 39.9304L180.669 39.1769L180.565 39.0858L179.907 39.8393Z" fill="#009355"/>
<path d="M179.867 38.2618C107.134 -21.5737 61.9935 3.99206 48.5146 24.2544C114.059 25.9456 163.393 72.3554 179.867 95.3489C227.651 35.9363 287.346 23.1973 311.22 24.2544C274.642 -23.7409 208.411 13.5946 179.867 38.2618Z" fill="#A8CF45" stroke="#A8CF45" stroke-width="2"/>
<path d="M236.162 250.49C200.43 263.599 188.854 294.01 187.532 307.577C223.053 307.577 249.729 299.648 258.627 295.684C324.594 271.792 352.362 222.828 358 201.332H345.314C326.074 239.39 279.506 260.533 258.627 266.348L275.277 251.283C286.694 240.711 279.329 230.845 274.22 227.233C270.625 235.478 247.35 246.173 236.162 250.49Z" fill="#1F5CA9" stroke="#1F5CA9" stroke-width="2"/>
<path d="M123.838 250.752C159.57 263.861 171.146 294.272 172.468 307.839C136.947 307.839 110.271 299.91 101.373 295.946C35.4065 272.054 7.63828 223.089 2.00006 201.594L14.686 201.594C33.9264 239.652 80.4945 260.795 101.373 266.609L84.7232 251.545C73.3058 240.973 80.6707 231.106 85.7803 227.494C89.3747 235.74 112.65 246.435 123.838 250.752Z" fill="#1F5CA9" stroke="#1F5CA9" stroke-width="2"/>
<path d="M400.028 136V43.6364H437.009C443.804 43.6364 449.472 44.6436 454.012 46.658C458.552 48.6725 461.964 51.4686 464.249 55.0465C466.534 58.5943 467.677 62.6834 467.677 67.3136C467.677 70.9215 466.955 74.0935 465.512 76.8295C464.069 79.5355 462.085 81.7604 459.559 83.5043C457.063 85.218 454.207 86.4357 450.99 87.1573V88.0593C454.508 88.2096 457.8 89.2018 460.867 91.0359C463.964 92.8699 466.474 95.4406 468.398 98.7479C470.323 102.025 471.285 105.934 471.285 110.474C471.285 115.375 470.067 119.749 467.632 123.598C465.226 127.416 461.664 130.438 456.943 132.663C452.223 134.888 446.405 136 439.49 136H400.028ZM419.556 120.035H435.476C440.918 120.035 444.887 118.998 447.382 116.923C449.878 114.818 451.125 112.022 451.125 108.534C451.125 105.979 450.509 103.724 449.276 101.77C448.044 99.8152 446.285 98.2818 444 97.1694C441.745 96.0569 439.054 95.5007 435.927 95.5007H419.556V120.035ZM419.556 82.2866H434.033C436.709 82.2866 439.084 81.8205 441.158 80.8885C443.263 79.9264 444.917 78.5734 446.119 76.8295C447.352 75.0857 447.968 72.9961 447.968 70.5607C447.968 67.2234 446.781 64.5324 444.406 62.4879C442.06 60.4434 438.723 59.4212 434.393 59.4212H419.556V82.2866ZM503.52 43.6364V136H483.992V43.6364H503.52ZM596.842 43.6364V136H579.974L539.791 77.8668H539.114V136H519.586V43.6364H536.724L576.592 101.724H577.404V43.6364H596.842ZM612.976 136V43.6364H632.504V81.7454H672.146V43.6364H691.629V136H672.146V97.8459H632.504V136H612.976ZM769.866 136H737.123V43.6364H770.136C779.427 43.6364 787.424 45.4854 794.129 49.1836C800.834 52.8517 805.99 58.1283 809.598 65.0135C813.236 71.8987 815.055 80.1368 815.055 89.728C815.055 99.3492 813.236 107.617 809.598 114.533C805.99 121.448 800.804 126.755 794.039 130.453C787.304 134.151 779.246 136 769.866 136ZM756.651 119.268H769.054C774.827 119.268 779.682 118.246 783.621 116.201C787.59 114.127 790.566 110.925 792.551 106.595C794.565 102.236 795.572 96.6132 795.572 89.728C795.572 82.9029 794.565 77.3256 792.551 72.9961C790.566 68.6665 787.605 65.4795 783.666 63.435C779.727 61.3905 774.872 60.3683 769.099 60.3683H756.651V119.268ZM849.049 43.6364V136H829.521V43.6364H849.049ZM942.371 43.6364V136H925.504L885.32 77.8668H884.644V136H865.116V43.6364H882.253L922.121 101.724H922.933V43.6364H942.371ZM958.505 136V43.6364H978.033V81.7454H1017.68V43.6364H1037.16V136H1017.68V97.8459H978.033V136H958.505Z" fill="#0054A6"/>
<path d="M8.06818 459V389.182H36.0227C41.1591 389.182 45.4432 389.943 48.875 391.466C52.3068 392.989 54.8864 395.102 56.6136 397.807C58.3409 400.489 59.2045 403.58 59.2045 407.08C59.2045 409.807 58.6591 412.205 57.5682 414.273C56.4773 416.318 54.9773 418 53.0682 419.318C51.1818 420.614 49.0227 421.534 46.5909 422.08V422.761C49.25 422.875 51.7386 423.625 54.0568 425.011C56.3977 426.398 58.2955 428.341 59.75 430.841C61.2045 433.318 61.9318 436.273 61.9318 439.705C61.9318 443.409 61.0114 446.716 59.1705 449.625C57.3523 452.511 54.6591 454.795 51.0909 456.477C47.5227 458.159 43.125 459 37.8977 459H8.06818ZM22.8295 446.932H34.8636C38.9773 446.932 41.9773 446.148 43.8636 444.58C45.75 442.989 46.6932 440.875 46.6932 438.239C46.6932 436.307 46.2273 434.602 45.2955 433.125C44.3636 431.648 43.0341 430.489 41.3068 429.648C39.6023 428.807 37.5682 428.386 35.2045 428.386H22.8295V446.932ZM22.8295 418.398H33.7727C35.7955 418.398 37.5909 418.045 39.1591 417.341C40.75 416.614 42 415.591 42.9091 414.273C43.8409 412.955 44.3068 411.375 44.3068 409.534C44.3068 407.011 43.4091 404.977 41.6136 403.432C39.8409 401.886 37.3182 401.114 34.0455 401.114H22.8295V418.398ZM71.5369 459V389.182H118.582V401.352H86.2983V417.989H116.162V430.159H86.2983V446.83H118.719V459H71.5369ZM102.014 382.909L95.1619 374.591L88.3097 382.909H75.9347V382.432L89.7415 367.432H100.548L114.389 382.432V382.909H102.014ZM94.9233 478.602C92.7642 478.602 90.9119 477.886 89.3665 476.455C87.821 475.023 87.0483 473.295 87.0483 471.273C87.0483 469.25 87.821 467.523 89.3665 466.091C90.9119 464.659 92.7642 463.943 94.9233 463.943C97.0824 463.943 98.9233 464.659 100.446 466.091C101.991 467.523 102.764 469.25 102.764 471.273C102.764 473.295 101.991 475.023 100.446 476.455C98.9233 477.886 97.0824 478.602 94.9233 478.602ZM188.716 389.182V459H175.966L145.591 415.057H145.08V459H130.318V389.182H143.273L173.409 433.091H174.023V389.182H188.716ZM200.912 459V389.182H215.673V417.989H245.639V389.182H260.366V459H245.639V430.159H215.673V459H200.912ZM307.369 389.182L324.244 442.227H324.892L341.801 389.182H358.165L334.097 459H315.074L290.972 389.182H307.369ZM381.33 389.182V459H366.568V389.182H381.33ZM393.474 459V389.182H440.52V401.352H408.236V417.989H438.099V430.159H408.236V446.83H440.656V459H393.474ZM423.952 382.909L417.099 374.591L410.247 382.909H397.872V382.432L411.679 367.432H422.486L436.327 382.432V382.909H423.952ZM416.861 478.602C414.702 478.602 412.849 477.886 411.304 476.455C409.759 475.023 408.986 473.295 408.986 471.273C408.986 469.25 409.759 467.523 411.304 466.091C412.849 464.659 414.702 463.943 416.861 463.943C419.02 463.943 420.861 464.659 422.384 466.091C423.929 467.523 424.702 469.25 424.702 471.273C424.702 473.295 423.929 475.023 422.384 476.455C420.861 477.886 419.02 478.602 416.861 478.602ZM510.653 389.182V459H497.903L467.528 415.057H467.017V459H452.256V389.182H465.21L495.347 433.091H495.96V389.182H510.653ZM545.068 459V389.182H573.023C578.159 389.182 582.443 389.943 585.875 391.466C589.307 392.989 591.886 395.102 593.614 397.807C595.341 400.489 596.205 403.58 596.205 407.08C596.205 409.807 595.659 412.205 594.568 414.273C593.477 416.318 591.977 418 590.068 419.318C588.182 420.614 586.023 421.534 583.591 422.08V422.761C586.25 422.875 588.739 423.625 591.057 425.011C593.398 426.398 595.295 428.341 596.75 430.841C598.205 433.318 598.932 436.273 598.932 439.705C598.932 443.409 598.011 446.716 596.17 449.625C594.352 452.511 591.659 454.795 588.091 456.477C584.523 458.159 580.125 459 574.898 459H545.068ZM559.83 446.932H571.864C575.977 446.932 578.977 446.148 580.864 444.58C582.75 442.989 583.693 440.875 583.693 438.239C583.693 436.307 583.227 434.602 582.295 433.125C581.364 431.648 580.034 430.489 578.307 429.648C576.602 428.807 574.568 428.386 572.205 428.386H559.83V446.932ZM559.83 418.398H570.773C572.795 418.398 574.591 418.045 576.159 417.341C577.75 416.614 579 415.591 579.909 414.273C580.841 412.955 581.307 411.375 581.307 409.534C581.307 407.011 580.409 404.977 578.614 403.432C576.841 401.886 574.318 401.114 571.045 401.114H559.83V418.398ZM623.298 389.182V459H608.537V389.182H623.298ZM610.923 382.432L600.526 366.92H613.923L621.185 382.432H610.923ZM693.841 389.182V459H681.091L650.716 415.057H650.205V459H635.443V389.182H648.398L678.534 433.091H679.148V389.182H693.841ZM706.037 459V389.182H720.798V417.989H750.764V389.182H765.491V459H750.764V430.159H720.798V459H706.037ZM824.631 459H806.46V446.352H824.017C828.381 446.352 832.051 445.58 835.028 444.034C838.028 442.466 840.278 440.045 841.778 436.773C843.301 433.477 844.062 429.227 844.062 424.023C844.062 418.864 843.301 414.648 841.778 411.375C840.278 408.102 838.04 405.693 835.062 404.148C832.085 402.602 828.415 401.83 824.051 401.83H806.153V389.182H824.835C831.858 389.182 837.903 390.58 842.972 393.375C848.04 396.148 851.938 400.136 854.665 405.341C857.415 410.545 858.79 416.773 858.79 424.023C858.79 431.295 857.415 437.545 854.665 442.773C851.938 448 848.017 452.011 842.903 454.807C837.812 457.602 831.722 459 824.631 459ZM814.642 389.182V459H799.881V389.182H814.642ZM790.199 426.477V417.886H824.188V426.477H790.199ZM884.486 389.182V459H869.724V389.182H884.486ZM877.088 478.602C874.929 478.602 873.077 477.886 871.531 476.455C869.986 475.023 869.213 473.295 869.213 471.273C869.213 469.25 869.986 467.523 871.531 466.091C873.077 464.659 874.929 463.943 877.088 463.943C879.247 463.943 881.088 464.659 882.611 466.091C884.156 467.523 884.929 469.25 884.929 471.273C884.929 473.295 884.156 475.023 882.611 476.455C881.088 477.886 879.247 478.602 877.088 478.602ZM955.028 389.182V459H942.278L911.903 415.057H911.392V459H896.631V389.182H909.585L939.722 433.091H940.335V389.182H955.028ZM967.224 459V389.182H981.986V417.989H1011.95V389.182H1026.68V459H1011.95V430.159H981.986V459H967.224Z" fill="#0054A6"/>
<path d="M427.455 206.008C427.131 204.884 426.677 203.892 426.093 203.03C425.508 202.153 424.792 201.414 423.946 200.814C423.115 200.199 422.161 199.729 421.084 199.406C420.022 199.083 418.845 198.922 417.552 198.922C415.136 198.922 413.013 199.522 411.181 200.722C409.366 201.922 407.95 203.669 406.934 205.962C405.919 208.239 405.411 211.024 405.411 214.317C405.411 217.611 405.911 220.411 406.911 222.719C407.911 225.028 409.327 226.79 411.158 228.005C412.99 229.206 415.152 229.806 417.645 229.806C419.907 229.806 421.838 229.406 423.438 228.605C425.054 227.79 426.285 226.643 427.131 225.166C427.993 223.689 428.424 221.942 428.424 219.926L430.455 220.227H418.268V212.702H438.049V218.657C438.049 222.812 437.172 226.382 435.418 229.367C433.664 232.337 431.248 234.63 428.17 236.246C425.092 237.846 421.569 238.646 417.598 238.646C413.167 238.646 409.273 237.669 405.919 235.715C402.564 233.745 399.948 230.952 398.071 227.336C396.209 223.704 395.278 219.396 395.278 214.41C395.278 210.578 395.832 207.162 396.94 204.161C398.063 201.145 399.633 198.591 401.648 196.498C403.664 194.405 406.011 192.812 408.689 191.72C411.366 190.627 414.267 190.081 417.391 190.081C420.068 190.081 422.561 190.473 424.869 191.258C427.178 192.028 429.224 193.12 431.009 194.536C432.81 195.952 434.279 197.637 435.418 199.591C436.557 201.53 437.288 203.669 437.611 206.008H427.455ZM445.557 238V190.727H477.411V198.968H455.552V210.232H475.772V218.472H455.552V229.76H477.503V238H445.557ZM524.897 190.727V238H516.264L495.698 208.247H495.351V238H485.357V190.727H494.128L514.533 220.457H514.948V190.727H524.897ZM533.155 238V190.727H565.008V198.968H543.149V210.232H563.369V218.472H543.149V229.76H565.101V238H533.155ZM572.954 238V190.727H591.605C595.175 190.727 598.222 191.366 600.746 192.643C603.285 193.905 605.216 195.698 606.539 198.021C607.878 200.33 608.547 203.046 608.547 206.169C608.547 209.309 607.87 212.009 606.516 214.271C605.162 216.518 603.2 218.241 600.63 219.442C598.076 220.642 594.983 221.242 591.351 221.242H578.863V213.21H589.735C591.643 213.21 593.228 212.948 594.49 212.425C595.752 211.902 596.691 211.117 597.306 210.07C597.937 209.024 598.253 207.724 598.253 206.169C598.253 204.6 597.937 203.276 597.306 202.199C596.691 201.122 595.744 200.306 594.467 199.752C593.205 199.183 591.613 198.898 589.689 198.898H582.949V238H572.954ZM598.483 216.487L610.232 238H599.199L587.704 216.487H598.483ZM623.759 238H613.048L629.368 190.727H642.248L658.544 238H647.834L635.992 201.53H635.623L623.759 238ZM623.089 219.419H648.388V227.221H623.089V219.419ZM664.234 238V190.727H674.228V229.76H694.495V238H664.234ZM716.157 238V190.727H726.152V210.232H746.442V190.727H756.413V238H746.442V218.472H726.152V238H716.157ZM808.095 214.364C808.095 219.519 807.117 223.904 805.163 227.521C803.224 231.137 800.577 233.899 797.223 235.807C793.884 237.7 790.129 238.646 785.959 238.646C781.758 238.646 777.988 237.692 774.648 235.784C771.309 233.876 768.67 231.114 766.731 227.498C764.792 223.881 763.823 219.503 763.823 214.364C763.823 209.209 764.792 204.823 766.731 201.207C768.67 197.59 771.309 194.836 774.648 192.943C777.988 191.035 781.758 190.081 785.959 190.081C790.129 190.081 793.884 191.035 797.223 192.943C800.577 194.836 803.224 197.59 805.163 201.207C807.117 204.823 808.095 209.209 808.095 214.364ZM797.961 214.364C797.961 211.024 797.461 208.208 796.461 205.915C795.476 203.623 794.084 201.884 792.283 200.699C790.483 199.514 788.375 198.922 785.959 198.922C783.543 198.922 781.434 199.514 779.634 200.699C777.834 201.884 776.433 203.623 775.433 205.915C774.448 208.208 773.956 211.024 773.956 214.364C773.956 217.703 774.448 220.519 775.433 222.812C776.433 225.105 777.834 226.844 779.634 228.028C781.434 229.213 783.543 229.806 785.959 229.806C788.375 229.806 790.483 229.213 792.283 228.028C794.084 226.844 795.476 225.105 796.461 222.812C797.461 220.519 797.961 217.703 797.961 214.364ZM841.143 204.323C840.958 202.461 840.166 201.014 838.765 199.983C837.365 198.952 835.465 198.437 833.064 198.437C831.433 198.437 830.056 198.668 828.932 199.129C827.809 199.576 826.947 200.199 826.347 200.999C825.762 201.799 825.47 202.707 825.47 203.723C825.439 204.569 825.616 205.308 826.001 205.939C826.401 206.569 826.947 207.116 827.64 207.577C828.332 208.024 829.132 208.416 830.04 208.755C830.948 209.078 831.918 209.355 832.949 209.586L837.196 210.601C839.258 211.063 841.151 211.678 842.874 212.448C844.598 213.217 846.09 214.164 847.352 215.287C848.614 216.41 849.591 217.734 850.283 219.257C850.991 220.781 851.353 222.527 851.368 224.497C851.353 227.39 850.614 229.898 849.152 232.022C847.706 234.13 845.613 235.769 842.874 236.938C840.15 238.092 836.865 238.669 833.018 238.669C829.202 238.669 825.878 238.085 823.046 236.915C820.23 235.746 818.03 234.014 816.445 231.722C814.875 229.413 814.052 226.559 813.975 223.158H823.646C823.754 224.743 824.208 226.066 825.008 227.128C825.824 228.175 826.909 228.967 828.263 229.506C829.632 230.029 831.179 230.29 832.902 230.29C834.595 230.29 836.065 230.044 837.311 229.552C838.573 229.059 839.55 228.375 840.243 227.498C840.935 226.62 841.281 225.612 841.281 224.474C841.281 223.412 840.966 222.519 840.335 221.796C839.719 221.073 838.812 220.457 837.611 219.95C836.426 219.442 834.972 218.98 833.249 218.565L828.101 217.272C824.116 216.303 820.969 214.787 818.661 212.725C816.352 210.663 815.206 207.885 815.221 204.392C815.206 201.53 815.968 199.029 817.506 196.89C819.061 194.751 821.192 193.082 823.9 191.881C826.609 190.681 829.686 190.081 833.133 190.081C836.642 190.081 839.704 190.681 842.32 191.881C844.951 193.082 846.998 194.751 848.46 196.89C849.922 199.029 850.676 201.507 850.722 204.323H841.143ZM858.091 238V190.727H876.742C880.327 190.727 883.382 191.412 885.905 192.782C888.429 194.136 890.353 196.021 891.676 198.437C893.015 200.837 893.684 203.607 893.684 206.746C893.684 209.886 893.007 212.656 891.653 215.056C890.299 217.457 888.337 219.326 885.767 220.665C883.212 222.004 880.119 222.673 876.488 222.673H864.6V214.664H874.872C876.796 214.664 878.381 214.333 879.627 213.671C880.889 212.994 881.827 212.063 882.443 210.878C883.074 209.678 883.389 208.301 883.389 206.746C883.389 205.177 883.074 203.807 882.443 202.638C881.827 201.453 880.889 200.537 879.627 199.891C878.365 199.229 876.765 198.898 874.826 198.898H868.086V238H858.091ZM910.171 190.727V238H900.176V190.727H910.171ZM916.593 198.968V190.727H955.418V198.968H940.945V238H931.066V198.968H916.593ZM964.184 238H953.473L969.793 190.727H982.672L998.969 238H988.258L976.417 201.53H976.048L964.184 238ZM963.514 219.419H988.812V227.221H963.514V219.419ZM1004.66 238V190.727H1014.65V229.76H1034.92V238H1004.66Z" fill="#009355"/>
</svg>
